<svg width="265" height="257" viewBox="0 0 265 257" fill="none" xmlns="http://www.w3.org/2000/svg">
<g filter="url(#filter0_d_1_70)">
<ellipse cx="193" cy="126" rx="42" ry="41" fill="#EFEFEF" fill-opacity="0.68" shape-rendering="crispEdges"/>
<path d="M234.5 126C234.5 148.356 215.931 166.5 193 166.5C170.069 166.5 151.5 148.356 151.5 126C151.5 103.644 170.069 85.5 193 85.5C215.931 85.5 234.5 103.644 234.5 126Z" stroke="black" shape-rendering="crispEdges"/>
</g>
<g filter="url(#filter1_d_1_70)">
<ellipse rx="47.6037" ry="51.8298" transform="matrix(0.0101907 0.999948 -0.999972 0.00747273 132.34 122.951)" fill="#F99058"/>
<path d="M132.82 170.053C104.431 170.265 81.2761 149.309 81.0114 123.335C80.7467 97.3609 103.471 76.0623 131.86 75.8502C160.248 75.638 183.403 96.5937 183.668 122.568C183.933 148.542 161.209 169.841 132.82 170.053Z" stroke="black"/>
</g>
<g filter="url(#filter2_d_1_70)">
<path d="M161.95 102.51C162.137 102.743 162.23 102.953 162.23 103.14C162.23 103.28 162.067 103.537 161.74 103.91C161.46 104.237 160.947 104.727 160.2 105.38C159.453 106.033 158.427 106.967 157.12 108.18C155.813 109.393 154.133 110.933 152.08 112.8C150.073 114.667 147.647 116.977 144.8 119.73C144.193 120.337 143.47 121.083 142.63 121.97C141.79 122.81 140.903 123.72 139.97 124.7C139.037 125.68 138.127 126.66 137.24 127.64C136.353 128.62 135.537 129.507 134.79 130.3C134.09 131.093 133.507 131.747 133.04 132.26C132.62 132.773 132.41 133.053 132.41 133.1C132.41 133.147 132.62 133.403 133.04 133.87C133.507 134.29 133.997 134.757 134.51 135.27C135.023 135.737 135.513 136.18 135.98 136.6C136.447 136.973 136.703 137.16 136.75 137.16C136.797 137.16 136.913 137.253 137.1 137.44C137.287 137.627 137.683 137.93 138.29 138.35C138.897 138.723 139.737 139.26 140.81 139.96C141.883 140.613 143.307 141.43 145.08 142.41C146.06 142.923 147.11 143.437 148.23 143.95C149.397 144.463 150.47 144.907 151.45 145.28C152.477 145.653 153.317 145.957 153.97 146.19C154.67 146.47 155.02 146.633 155.02 146.68C155.02 146.773 154.903 146.867 154.67 146.96C154.483 147.1 154.343 147.17 154.25 147.17C154.203 147.17 153.993 147.123 153.62 147.03C153.293 146.937 152.92 146.82 152.5 146.68C152.08 146.587 151.66 146.47 151.24 146.33C150.82 146.237 150.493 146.143 150.26 146.05C147.973 145.21 146.06 144.417 144.52 143.67C142.98 142.923 141.72 142.27 140.74 141.71C139.807 141.15 139.13 140.707 138.71 140.38C138.29 140.053 138.033 139.89 137.94 139.89C137.893 139.89 137.613 139.703 137.1 139.33C136.587 138.91 136.003 138.42 135.35 137.86C134.697 137.3 134.043 136.717 133.39 136.11C132.783 135.503 132.317 134.967 131.99 134.5C131.803 134.267 131.687 134.15 131.64 134.15C131.593 134.15 131.547 134.29 131.5 134.57C131.407 135.13 131.243 135.853 131.01 136.74C130.823 137.58 130.683 138.257 130.59 138.77C130.59 138.863 130.473 139.353 130.24 140.24C130.053 141.127 129.82 142.107 129.54 143.18C129.26 144.253 128.957 145.233 128.63 146.12C128.35 147.007 128.14 147.497 128 147.59C127.86 147.683 127.603 147.73 127.23 147.73C126.857 147.777 126.577 147.753 126.39 147.66C126.157 147.567 126.04 147.52 126.04 147.52C126.04 147.52 126.063 147.217 126.11 146.61C126.157 145.583 126.227 144.93 126.32 144.65C126.413 144.37 126.437 144.113 126.39 143.88C126.39 143.833 126.577 142.83 126.95 140.87C127.323 138.91 127.813 136.46 128.42 133.52C129.027 130.533 129.703 127.313 130.45 123.86C131.197 120.36 131.92 117.07 132.62 113.99C133.367 110.863 134.067 108.18 134.72 105.94C135.373 103.7 135.887 102.347 136.26 101.88C136.353 101.787 136.493 101.81 136.68 101.95C136.773 101.997 136.867 102.09 136.96 102.23C137.1 102.323 137.217 102.417 137.31 102.51C137.45 102.697 137.543 102.837 137.59 102.93C137.637 102.977 137.66 103.163 137.66 103.49C137.66 104.377 137.52 105.66 137.24 107.34C137.007 108.973 136.703 110.77 136.33 112.73C135.957 114.69 135.56 116.72 135.14 118.82C134.72 120.873 134.3 122.763 133.88 124.49C133.507 126.17 133.18 127.593 132.9 128.76C132.62 129.927 132.457 130.58 132.41 130.72C132.177 131.373 132.34 131.35 132.9 130.65C133.46 129.903 134.51 128.69 136.05 127.01C137.123 125.843 138.08 124.793 138.92 123.86C139.76 122.88 140.6 121.947 141.44 121.06C142.28 120.127 143.143 119.193 144.03 118.26C144.963 117.28 146.037 116.23 147.25 115.11C148.463 113.943 149.863 112.637 151.45 111.19C153.037 109.743 154.927 108.087 157.12 106.22C157.213 106.127 157.447 105.94 157.82 105.66C158.193 105.333 158.613 104.983 159.08 104.61C159.547 104.237 159.99 103.863 160.41 103.49C160.877 103.117 161.25 102.813 161.53 102.58C161.717 102.393 161.81 102.3 161.81 102.3C161.81 102.3 161.857 102.37 161.95 102.51ZM172.163 124C172.443 124 172.63 124.047 172.723 124.14C172.863 124.233 172.863 124.443 172.723 124.77C172.583 125.05 172.303 125.517 171.883 126.17C171.51 126.777 170.95 127.617 170.203 128.69C169.55 129.623 168.756 130.627 167.823 131.7C166.936 132.727 165.98 133.45 164.953 133.87C164.066 134.29 163.156 134.29 162.223 133.87C161.29 133.403 160.59 132.587 160.123 131.42C159.656 130.207 159.563 128.643 159.843 126.73C160.076 124.817 160.94 122.6 162.433 120.08C162.526 119.847 162.643 119.66 162.783 119.52C162.923 119.38 163.133 119.17 163.413 118.89C163.926 118.377 164.44 118.143 164.953 118.19C165.466 118.19 165.933 118.33 166.353 118.61C166.773 118.89 167.123 119.24 167.403 119.66C167.73 120.033 167.916 120.313 167.963 120.5C168.15 121.107 168.126 121.783 167.893 122.53C167.706 123.277 167.38 123.93 166.913 124.49C166.493 125.05 165.98 125.447 165.373 125.68C164.813 125.867 164.253 125.703 163.693 125.19C163.506 125.05 163.413 124.98 163.413 124.98C163.413 124.98 163.39 125.05 163.343 125.19C163.25 125.423 163.156 125.657 163.063 125.89C163.016 126.123 162.97 126.31 162.923 126.45L162.643 127.99C162.55 128.41 162.456 128.9 162.363 129.46C162.223 129.833 162.176 130.417 162.223 131.21C162.316 132.003 162.456 132.61 162.643 133.03C162.83 133.45 163.25 133.543 163.903 133.31C164.556 133.03 165.326 132.493 166.213 131.7C167.146 130.86 168.126 129.787 169.153 128.48C170.226 127.173 171.23 125.68 172.163 124ZM163.763 123.93C163.67 124.023 163.693 124.14 163.833 124.28C164.02 124.467 164.09 124.653 164.043 124.84C163.996 124.98 164.206 125.003 164.673 124.91C165.093 124.77 165.513 124.373 165.933 123.72C166.4 123.02 166.703 122.32 166.843 121.62C166.89 121.293 166.89 120.943 166.843 120.57C166.843 120.15 166.796 119.917 166.703 119.87C166.656 119.823 166.54 119.847 166.353 119.94C166.213 120.033 166.05 120.173 165.863 120.36C165.723 120.5 165.56 120.663 165.373 120.85C165.233 120.99 165.14 121.13 165.093 121.27C165.093 121.27 165.023 121.41 164.883 121.69C164.743 121.97 164.58 122.273 164.393 122.6C164.253 122.927 164.113 123.23 163.973 123.51C163.833 123.79 163.763 123.93 163.763 123.93ZM191.626 124C191.906 124.14 192.022 124.327 191.976 124.56C191.976 124.793 191.766 124.887 191.346 124.84C190.972 124.84 190.272 124.817 189.246 124.77C188.266 124.723 187.216 124.677 186.096 124.63C185.022 124.583 183.972 124.537 182.946 124.49C181.966 124.397 181.289 124.327 180.916 124.28C181.009 125.26 180.986 126.193 180.846 127.08C180.706 127.967 180.379 129.04 179.866 130.3C179.306 131.56 178.862 132.377 178.536 132.75C178.256 133.123 177.952 133.473 177.626 133.8C177.299 133.8 176.949 133.8 176.576 133.8C176.202 133.753 175.829 133.66 175.456 133.52C175.129 133.333 174.849 133.03 174.616 132.61C174.336 132.19 174.126 131.583 173.986 130.79C173.892 130.23 173.892 129.623 173.986 128.97C174.032 128.317 174.126 127.687 174.266 127.08C174.359 126.473 174.476 125.96 174.616 125.54C174.756 125.073 174.872 124.77 174.966 124.63C175.106 124.397 175.222 124.187 175.316 124C175.362 123.767 175.456 123.533 175.596 123.3C176.389 121.993 176.996 121.083 177.416 120.57C177.836 120.057 178.162 119.73 178.396 119.59C178.629 119.45 178.769 119.403 178.816 119.45C178.909 119.497 178.956 119.45 178.956 119.31C178.956 119.123 179.166 119.193 179.586 119.52C179.726 119.613 179.889 119.917 180.076 120.43C180.262 120.943 180.426 121.527 180.566 122.18C180.659 122.693 180.729 123.02 180.776 123.16C180.822 123.253 180.939 123.3 181.126 123.3C181.219 123.3 181.662 123.347 182.456 123.44C183.296 123.487 184.276 123.557 185.396 123.65C186.516 123.697 187.636 123.767 188.756 123.86C189.922 123.953 190.879 124 191.626 124ZM178.606 122.6C178.606 122.74 178.722 122.833 178.956 122.88C179.376 123.067 179.586 123.067 179.586 122.88C179.632 122.74 179.609 122.413 179.516 121.9C179.422 121.387 179.352 121.13 179.306 121.13C179.259 121.13 179.142 121.34 178.956 121.76C178.769 122.18 178.652 122.46 178.606 122.6ZM179.586 125.47C179.632 125.05 179.656 124.747 179.656 124.56C179.702 124.373 179.679 124.257 179.586 124.21C179.539 124.117 179.422 124.047 179.236 124C179.096 123.907 178.886 123.79 178.606 123.65C178.372 123.51 178.256 123.44 178.256 123.44C178.256 123.393 178.209 123.463 178.116 123.65C177.462 124.957 176.996 126.193 176.716 127.36C176.436 128.48 176.272 129.46 176.226 130.3C176.179 131.14 176.202 131.793 176.296 132.26C176.389 132.727 176.506 132.96 176.646 132.96C176.739 132.96 176.926 132.75 177.206 132.33C177.486 131.863 177.789 131.28 178.116 130.58C178.442 129.88 178.746 129.087 179.026 128.2C179.306 127.313 179.492 126.403 179.586 125.47ZM216.014 124C216.387 124.187 216.527 124.397 216.434 124.63C216.34 124.863 216.247 124.98 216.154 124.98C215.64 125.027 214.777 125.167 213.564 125.4C212.35 125.633 211.137 125.96 209.924 126.38C209.597 126.473 209.387 126.59 209.294 126.73C209.247 126.823 209.107 127.173 208.874 127.78C208.547 128.853 208.22 129.67 207.894 130.23C207.707 130.557 207.544 130.837 207.404 131.07C207.404 131.163 207.31 131.373 207.124 131.7C206.984 131.98 206.867 132.143 206.774 132.19C206.68 132.283 206.634 132.377 206.634 132.47C206.68 132.563 206.657 132.61 206.564 132.61C206.47 132.61 206.424 132.68 206.424 132.82C206.47 132.913 206.377 133.077 206.144 133.31C206.05 133.403 205.98 133.473 205.934 133.52C205.934 133.567 205.91 133.637 205.864 133.73C205.817 133.777 205.77 133.847 205.724 133.94C205.677 134.033 205.56 134.197 205.374 134.43C203.134 137.277 201.127 139.237 199.354 140.31C197.627 141.383 196.25 141.827 195.224 141.64C194.244 141.453 193.66 140.777 193.474 139.61C193.24 138.397 193.544 136.973 194.384 135.34C195.317 133.427 196.577 131.793 198.164 130.44C199.797 129.04 201.57 127.943 203.484 127.15C203.577 127.103 203.74 127.057 203.974 127.01C204.254 126.917 204.557 126.823 204.884 126.73C205.21 126.59 205.514 126.473 205.794 126.38C206.074 126.287 206.284 126.217 206.424 126.17C206.47 126.17 206.54 126.053 206.634 125.82C206.774 125.54 206.89 125.26 206.984 124.98C207.077 124.7 207.17 124.443 207.264 124.21C207.357 123.977 207.404 123.86 207.404 123.86C207.497 123.767 207.614 123.463 207.754 122.95C207.894 122.437 208.01 121.877 208.104 121.27C208.197 120.617 208.267 120.01 208.314 119.45C208.407 118.89 208.407 118.493 208.314 118.26C208.267 118.073 208.127 117.957 207.894 117.91C207.007 117.863 206.027 118.26 204.954 119.1C203.927 119.893 202.947 120.873 202.014 122.04C201.08 123.207 200.217 124.42 199.424 125.68C198.63 126.893 198.024 127.92 197.604 128.76C197.137 129.647 196.81 130.323 196.624 130.79C196.437 131.257 196.297 131.607 196.204 131.84C196.11 132.027 196.04 132.143 195.994 132.19C195.947 132.19 195.83 132.19 195.644 132.19C195.41 132.19 195.2 132.143 195.014 132.05C194.827 131.957 194.734 131.863 194.734 131.77C194.734 131.537 194.71 131.257 194.664 130.93C194.57 130.557 194.524 130.067 194.524 129.46C194.477 128.853 194.477 128.083 194.524 127.15C194.57 126.217 194.664 125.097 194.804 123.79C194.85 123.557 194.897 123.347 194.944 123.16C195.037 122.927 195.06 122.787 195.014 122.74C194.967 122.647 195.037 122.087 195.224 121.06C195.41 120.033 195.644 118.867 195.924 117.56C196.204 116.253 196.484 114.993 196.764 113.78C197.09 112.567 197.324 111.727 197.464 111.26C197.837 110.093 198.14 109.16 198.374 108.46C198.607 107.76 198.724 107.387 198.724 107.34C198.724 107.293 198.84 106.92 199.074 106.22C199.354 105.52 199.657 104.75 199.984 103.91C200.31 103.07 200.637 102.3 200.964 101.6C201.29 100.853 201.524 100.41 201.664 100.27C201.757 100.177 201.804 100.13 201.804 100.13C201.85 100.13 201.967 100.177 202.154 100.27C202.527 100.503 202.737 100.713 202.784 100.9C202.83 101.087 202.83 101.32 202.784 101.6C202.784 101.88 202.737 102.23 202.644 102.65C202.597 103.07 202.527 103.49 202.434 103.91C202.387 104.283 202.317 104.633 202.224 104.96C202.13 105.24 202.06 105.403 202.014 105.45C201.967 105.497 201.944 105.59 201.944 105.73C201.944 105.87 201.874 106.173 201.734 106.64C201.594 107.107 201.5 107.387 201.454 107.48C201.36 107.573 201.36 107.62 201.454 107.62C201.5 107.62 201.454 107.853 201.314 108.32C201.174 108.787 201.01 109.3 200.824 109.86C200.637 110.513 200.404 111.237 200.124 112.03C200.124 112.077 200.1 112.217 200.054 112.45C200.007 112.683 199.937 112.917 199.844 113.15C199.797 113.383 199.727 113.617 199.634 113.85C199.587 114.037 199.564 114.153 199.564 114.2C199.517 114.247 199.4 114.667 199.214 115.46C199.027 116.253 198.817 117.233 198.584 118.4C198.35 119.567 198.117 120.803 197.884 122.11C197.697 123.417 197.534 124.607 197.394 125.68C197.394 126.007 197.347 126.31 197.254 126.59C197.207 126.823 197.184 126.987 197.184 127.08C197.184 127.127 197.254 127.057 197.394 126.87C197.534 126.637 197.79 126.193 198.164 125.54C198.724 124.513 199.354 123.533 200.054 122.6C200.754 121.667 201.43 120.827 202.084 120.08C202.737 119.333 203.32 118.727 203.834 118.26C204.394 117.747 204.814 117.397 205.094 117.21C206.074 116.65 206.82 116.44 207.334 116.58C207.894 116.673 208.477 117.163 209.084 118.05C209.364 118.423 209.55 118.75 209.644 119.03C209.784 119.263 209.9 119.543 209.994 119.87C210.04 120.103 210.064 120.453 210.064 120.92C210.11 121.34 210.11 121.807 210.064 122.32C210.017 122.833 209.97 123.347 209.924 123.86C209.877 124.327 209.807 124.723 209.714 125.05C209.62 125.283 210.134 125.213 211.254 124.84C212.374 124.467 213.96 124.187 216.014 124ZM204.254 130.79C204.347 130.697 204.464 130.51 204.604 130.23C204.744 129.903 204.907 129.577 205.094 129.25C205.28 128.877 205.42 128.55 205.514 128.27C205.654 127.99 205.724 127.827 205.724 127.78C205.724 127.733 205.537 127.78 205.164 127.92C204.837 128.06 204.44 128.247 203.974 128.48C203.507 128.713 203.04 128.97 202.574 129.25C202.107 129.53 201.734 129.763 201.454 129.95C201.267 130.043 201.15 130.113 201.104 130.16C201.057 130.16 201.01 130.183 200.964 130.23C200.917 130.23 200.754 130.347 200.474 130.58C200.24 130.767 200.077 130.86 199.984 130.86C199.937 130.86 199.914 130.883 199.914 130.93C199.914 130.977 199.68 131.187 199.214 131.56C198.047 132.493 196.95 133.683 195.924 135.13C194.897 136.53 194.36 137.977 194.314 139.47C194.314 139.89 194.36 140.24 194.454 140.52C194.5 140.753 194.827 140.753 195.434 140.52L196.064 140.31C196.437 140.217 196.88 139.96 197.394 139.54C197.907 139.073 198.42 138.583 198.934 138.07C199.54 137.463 200.17 136.787 200.824 136.04C201.104 135.76 201.407 135.387 201.734 134.92C202.06 134.407 202.364 133.917 202.644 133.45C202.97 132.983 203.25 132.563 203.484 132.19C203.717 131.817 203.857 131.607 203.904 131.56C204.09 131.327 204.16 131.187 204.114 131.14C204.114 131.093 204.16 130.977 204.254 130.79Z" fill="black"/>
</g>
<path d="M42.3084 109.011C41.2531 110.068 40.4215 111.233 39.852 112.496C35.8522 121.377 46.3173 131.773 63.2227 135.716C80.1281 139.659 97.0765 135.656 101.076 126.775C101.646 125.512 101.921 124.217 101.926 122.916L42.3084 109.011Z" fill="#2E7987" stroke="black" stroke-opacity="0.73" stroke-width="2.14217" stroke-miterlimit="10"/>
<path d="M103.515 122.22C104.76 119.776 91.9991 114.797 75.0132 111.099C58.0274 107.401 43.2483 106.384 42.0034 108.827C40.7584 111.271 53.5189 116.251 70.5048 119.949C87.4907 123.647 102.27 124.664 103.515 122.22Z" fill="#10454F" fill-opacity="0.58" stroke="black" stroke-width="1.07108" stroke-miterlimit="10"/>
<path d="M91.0203 109.955C86.4701 106.997 82.2882 109.077 63.8785 110.179C50.5985 110.974 44.7344 110.374 44.2717 111.726C43.6676 113.491 52.9881 116.5 58.8095 118.213C58.8095 118.213 103.57 128.942 105.214 125.803C105.661 124.951 103.91 124.302 99.3167 119.659C92.9271 113.204 93.9198 111.84 91.0226 109.955H91.0203Z" fill="white" stroke="#1C1C1C" stroke-width="1.07108" stroke-miterlimit="10"/>
<path d="M114.306 100.76L85.9331 119.096" stroke="black" stroke-width="1.07108" stroke-miterlimit="10"/>
<path d="M112.851 104.324L85.5693 120.369" stroke="black" stroke-miterlimit="10"/>
<path d="M87.1256 73L89.998 99.6551" stroke="black" stroke-width="1.07108" stroke-miterlimit="10"/>
<path d="M90.7162 73.7136V101.321" stroke="black" stroke-width="1.07108" stroke-miterlimit="10"/>
<path d="M100.3 109.577C99.8777 109.038 98.9831 108.685 98.0776 108.699C97.3918 109.174 97.3786 109.954 97.7808 110.559C98.1831 111.163 98.9216 111.631 99.6425 112.082C100.15 112.401 100.763 112.744 101.451 112.675C102.139 112.606 104.97 110.831 104.307 110.692C105.252 111.693 104.392 112.994 103.531 114.028C103.328 114.27 103.091 114.534 102.698 114.619C102.39 114.687 102.054 114.628 101.744 114.562C99.5919 114.096 97.6116 113.194 96.3632 111.926C95.1147 110.658 94.6532 109.015 95.3499 107.567C95.7148 106.811 96.6093 106.037 97.7896 106.083C98.2028 106.099 98.5897 106.214 98.9589 106.34C100.26 106.778 101.462 107.348 102.517 108.021" fill="#73793A"/>
<path d="M100.3 109.577C99.8777 109.038 98.9831 108.685 98.0776 108.699C97.3918 109.174 97.3786 109.954 97.7808 110.559C98.1831 111.163 98.9216 111.631 99.6425 112.082C100.15 112.401 100.763 112.744 101.451 112.675C102.139 112.606 104.97 110.831 104.307 110.692C105.252 111.693 104.392 112.994 103.531 114.028C103.328 114.27 103.091 114.534 102.698 114.619C102.39 114.687 102.054 114.628 101.744 114.562C99.5919 114.096 97.6116 113.194 96.3632 111.926C95.1147 110.658 94.6532 109.015 95.3499 107.567C95.7148 106.811 96.6093 106.037 97.7896 106.083C98.2028 106.099 98.5897 106.214 98.9589 106.34C100.26 106.778 101.462 107.348 102.517 108.021" stroke="black" stroke-width="0.535542" stroke-miterlimit="10"/>
<path d="M87.877 84.0897C87.0727 83.9055 86.1472 84.0424 85.5788 84.4304C85.6075 85.0349 86.3716 85.5632 87.2289 85.8002C88.0861 86.0371 89.024 86.0418 89.9349 86.0431C90.5772 86.0446 91.3117 86.0185 91.6858 85.6847C92.0599 85.3509 92.1248 82.9795 91.5591 83.163C93.1584 83.4389 93.8937 84.6697 94.3634 85.7227C94.4732 85.9695 94.5818 86.2455 94.4129 86.4669C94.2821 86.6409 94.0071 86.7417 93.742 86.8267C91.8962 87.4135 89.7293 87.6367 87.6706 87.3087C85.6119 86.9806 83.6882 86.0726 82.7026 84.8112C82.189 84.1523 81.9976 83.2596 82.8028 82.7974C83.0843 82.6354 83.4475 82.5512 83.8093 82.481C85.0808 82.2312 86.4185 82.1108 87.7643 82.1214" fill="#A0AA6E"/>
<path d="M87.877 84.0897C87.0727 83.9055 86.1472 84.0424 85.5788 84.4304C85.6075 85.0349 86.3716 85.5632 87.2289 85.8002C88.0861 86.0371 89.024 86.0418 89.9349 86.0431C90.5772 86.0446 91.3117 86.0185 91.6858 85.6847C92.0599 85.3509 92.1248 82.9795 91.5591 83.163C93.1584 83.4389 93.8937 84.6697 94.3634 85.7227C94.4732 85.9695 94.5818 86.2455 94.4129 86.4669C94.2821 86.6409 94.0071 86.7417 93.742 86.8267C91.8962 87.4135 89.7293 87.6367 87.6706 87.3087C85.6119 86.9806 83.6882 86.0726 82.7026 84.8112C82.189 84.1523 81.9976 83.2596 82.8028 82.7974C83.0843 82.6354 83.4475 82.5512 83.8093 82.481C85.0808 82.2312 86.4185 82.1108 87.7643 82.1214" stroke="black" stroke-width="0.535542" stroke-miterlimit="10"/>
<path d="M78.1138 107.356C79.0019 107.815 80.3008 108.048 81.1447 107.523C81.7662 107.137 81.9164 106.448 81.6955 105.877C81.4746 105.307 80.9518 104.833 80.4039 104.404C79.345 103.573 78.0991 102.823 76.6087 102.512C75.3141 102.241 71.4865 102.472 72.4629 103.936C72.7869 104.422 74.3598 104.766 74.9401 105.099C76.105 105.769 76.8988 106.727 78.1138 107.357V107.356Z" fill="#757B3C" stroke="black" stroke-width="0.535542" stroke-miterlimit="10"/>
<path d="M76.026 102.8C77.641 103.293 79.0057 104.033 79.9305 104.917C80.273 105.244 80.3995 105.794 79.7329 105.89C77.5514 105.444 75.8731 104.332 75.4674 103.059" fill="white"/>
<path d="M76.026 102.8C77.641 103.293 79.0057 104.033 79.9305 104.917C80.273 105.244 80.3995 105.794 79.7329 105.89C77.5514 105.444 75.8731 104.332 75.4674 103.059" stroke="black" stroke-width="0.535542" stroke-miterlimit="10"/>
<path d="M64.1757 113.64C63.5132 113.012 62.2809 112.519 61.0757 112.851C60.1871 113.096 59.615 113.729 59.5043 114.325C59.3935 114.922 59.6625 115.486 59.9814 116.015C60.6009 117.036 61.4669 118.017 62.8552 118.625C64.0604 119.154 68.2435 119.723 68.092 118.108C68.0423 117.572 66.5861 116.916 66.1746 116.474C65.347 115.586 65.0847 114.497 64.178 113.638L64.1757 113.64Z" fill="#A3912F" stroke="black" stroke-width="0.535542" stroke-miterlimit="10"/>
<path d="M61.8892 114.648C63.5167 115.213 64.8525 116.104 65.7128 117.199C66.0298 117.603 66.0975 118.306 65.3915 118.456C63.168 117.977 61.5489 116.62 61.2742 115.004" fill="#E6E6E6"/>
<path d="M61.8892 114.648C63.5167 115.213 64.8525 116.104 65.7128 117.199C66.0298 117.603 66.0975 118.306 65.3915 118.456C63.168 117.977 61.5489 116.62 61.2742 115.004" stroke="black" stroke-width="0.535542" stroke-miterlimit="10"/>
<path d="M90.6427 112.467C90.6427 112.467 90.6427 112.468 90.6427 112.47C90.2457 113.918 88.5639 114.774 86.4075 115.796C83.1718 117.331 81.5426 118.094 81.1181 117.916C80.6846 117.734 81.2048 116.977 81.4216 116.665C82.9459 114.453 87.1811 113.176 90.645 112.468L90.6427 112.467Z" fill="#FBB03B" stroke="black" stroke-width="1.07108" stroke-miterlimit="10"/>
<defs>
<filter id="filter0_d_1_70" x="147" y="85" width="92" height="90" filterUnits="userSpaceOnUse" color-interpolation-filters="sRGB">
<feFlood flood-opacity="0" result="BackgroundImageFix"/>
<feColorMatrix in="SourceAlpha" type="matrix" values="0 0 0 0 0 0 0 0 0 0 0 0 0 0 0 0 0 0 127 0" result="hardAlpha"/>
<feOffset dy="4"/>
<feGaussianBlur stdDeviation="2"/>
<feComposite in2="hardAlpha" operator="out"/>
<feColorMatrix type="matrix" values="0 0 0 0 0 0 0 0 0 0 0 0 0 0 0 0 0 0 0.31 0"/>
<feBlend mode="normal" in2="BackgroundImageFix" result="effect1_dropShadow_1_70"/>
<feBlend mode="normal" in="SourceGraphic" in2="effect1_dropShadow_1_70" result="shape"/>
</filter>
<filter id="filter1_d_1_70" x="0.177887" y="0.372782" width="264.324" height="255.868" filterUnits="userSpaceOnUse" color-interpolation-filters="sRGB">
<feFlood flood-opacity="0" result="BackgroundImageFix"/>
<feColorMatrix in="SourceAlpha" type="matrix" values="0 0 0 0 0 0 0 0 0 0 0 0 0 0 0 0 0 0 127 0" result="hardAlpha"/>
<feOffset dy="5.35542"/>
<feGaussianBlur stdDeviation="40.1656"/>
<feComposite in2="hardAlpha" operator="out"/>
<feColorMatrix type="matrix" values="0 0 0 0 0 0 0 0 0 0 0 0 0 0 0 0 0 0 0.2 0"/>
<feBlend mode="normal" in2="BackgroundImageFix" result="effect1_dropShadow_1_70"/>
<feBlend mode="normal" in="SourceGraphic" in2="effect1_dropShadow_1_70" result="shape"/>
</filter>
<filter id="filter2_d_1_70" x="123.898" y="100.13" width="94.8178" height="51.9545" filterUnits="userSpaceOnUse" color-interpolation-filters="sRGB">
<feFlood flood-opacity="0" result="BackgroundImageFix"/>
<feColorMatrix in="SourceAlpha" type="matrix" values="0 0 0 0 0 0 0 0 0 0 0 0 0 0 0 0 0 0 127 0" result="hardAlpha"/>
<feOffset dy="2.14217"/>
<feGaussianBlur stdDeviation="1.07108"/>
<feComposite in2="hardAlpha" operator="out"/>
<feColorMatrix type="matrix" values="0 0 0 0 0 0 0 0 0 0 0 0 0 0 0 0 0 0 1 0"/>
<feBlend mode="normal" in2="BackgroundImageFix" result="effect1_dropShadow_1_70"/>
<feBlend mode="normal" in="SourceGraphic" in2="effect1_dropShadow_1_70" result="shape"/>
</filter>
</defs>
</svg>
