<svg width="265" height="256" viewBox="0 0 265 256" fill="none" xmlns="http://www.w3.org/2000/svg">
<g filter="url(#filter0_d_89_295)">
<ellipse cx="190" cy="124.634" rx="42" ry="41" fill="#EFEFEF"/>
<path d="M231.5 124.634C231.5 146.99 212.931 165.134 190 165.134C167.069 165.134 148.5 146.99 148.5 124.634C148.5 102.278 167.069 84.1338 190 84.1338C212.931 84.1338 231.5 102.278 231.5 124.634Z" stroke="black"/>
</g>
<g filter="url(#filter1_d_89_295)">
<ellipse rx="47.5811" ry="51.8298" transform="matrix(0.0101955 0.999948 -0.999972 0.00746918 132.314 122.581)" fill="#F99058"/>
<path d="M132.794 169.659C104.405 169.871 81.2499 148.925 80.9852 122.964C80.7205 97.0025 103.445 75.7139 131.834 75.5018C160.222 75.2898 183.377 96.2357 183.642 122.197C183.907 148.159 161.183 169.447 132.794 169.659Z" stroke="black"/>
</g>
<g filter="url(#filter2_d_89_295)">
<path d="M158.95 104.114C159.137 104.347 159.23 104.557 159.23 104.744C159.23 104.884 159.067 105.141 158.74 105.514C158.46 105.841 157.947 106.331 157.2 106.984C156.453 107.637 155.427 108.571 154.12 109.784C152.813 110.997 151.133 112.537 149.08 114.404C147.073 116.271 144.647 118.581 141.8 121.334C141.193 121.941 140.47 122.687 139.63 123.574C138.79 124.414 137.903 125.324 136.97 126.304C136.037 127.284 135.127 128.264 134.24 129.244C133.353 130.224 132.537 131.111 131.79 131.904C131.09 132.697 130.507 133.351 130.04 133.864C129.62 134.377 129.41 134.657 129.41 134.704C129.41 134.751 129.62 135.007 130.04 135.474C130.507 135.894 130.997 136.361 131.51 136.874C132.023 137.341 132.513 137.784 132.98 138.204C133.447 138.577 133.703 138.764 133.75 138.764C133.797 138.764 133.913 138.857 134.1 139.044C134.287 139.231 134.683 139.534 135.29 139.954C135.897 140.327 136.737 140.864 137.81 141.564C138.883 142.217 140.307 143.034 142.08 144.014C143.06 144.527 144.11 145.041 145.23 145.554C146.397 146.067 147.47 146.511 148.45 146.884C149.477 147.257 150.317 147.561 150.97 147.794C151.67 148.074 152.02 148.237 152.02 148.284C152.02 148.377 151.903 148.471 151.67 148.564C151.483 148.704 151.343 148.774 151.25 148.774C151.203 148.774 150.993 148.727 150.62 148.634C150.293 148.541 149.92 148.424 149.5 148.284C149.08 148.191 148.66 148.074 148.24 147.934C147.82 147.841 147.493 147.747 147.26 147.654C144.973 146.814 143.06 146.021 141.52 145.274C139.98 144.527 138.72 143.874 137.74 143.314C136.807 142.754 136.13 142.311 135.71 141.984C135.29 141.657 135.033 141.494 134.94 141.494C134.893 141.494 134.613 141.307 134.1 140.934C133.587 140.514 133.003 140.024 132.35 139.464C131.697 138.904 131.043 138.321 130.39 137.714C129.783 137.107 129.317 136.571 128.99 136.104C128.803 135.871 128.687 135.754 128.64 135.754C128.593 135.754 128.547 135.894 128.5 136.174C128.407 136.734 128.243 137.457 128.01 138.344C127.823 139.184 127.683 139.861 127.59 140.374C127.59 140.467 127.473 140.957 127.24 141.844C127.053 142.731 126.82 143.711 126.54 144.784C126.26 145.857 125.957 146.837 125.63 147.724C125.35 148.611 125.14 149.101 125 149.194C124.86 149.287 124.603 149.334 124.23 149.334C123.857 149.381 123.577 149.357 123.39 149.264C123.157 149.171 123.04 149.124 123.04 149.124C123.04 149.124 123.063 148.821 123.11 148.214C123.157 147.187 123.227 146.534 123.32 146.254C123.413 145.974 123.437 145.717 123.39 145.484C123.39 145.437 123.577 144.434 123.95 142.474C124.323 140.514 124.813 138.064 125.42 135.124C126.027 132.137 126.703 128.917 127.45 125.464C128.197 121.964 128.92 118.674 129.62 115.594C130.367 112.467 131.067 109.784 131.72 107.544C132.373 105.304 132.887 103.951 133.26 103.484C133.353 103.391 133.493 103.414 133.68 103.554C133.773 103.601 133.867 103.694 133.96 103.834C134.1 103.927 134.217 104.021 134.31 104.114C134.45 104.301 134.543 104.441 134.59 104.534C134.637 104.581 134.66 104.767 134.66 105.094C134.66 105.981 134.52 107.264 134.24 108.944C134.007 110.577 133.703 112.374 133.33 114.334C132.957 116.294 132.56 118.324 132.14 120.424C131.72 122.477 131.3 124.367 130.88 126.094C130.507 127.774 130.18 129.197 129.9 130.364C129.62 131.531 129.457 132.184 129.41 132.324C129.177 132.977 129.34 132.954 129.9 132.254C130.46 131.507 131.51 130.294 133.05 128.614C134.123 127.447 135.08 126.397 135.92 125.464C136.76 124.484 137.6 123.551 138.44 122.664C139.28 121.731 140.143 120.797 141.03 119.864C141.963 118.884 143.037 117.834 144.25 116.714C145.463 115.547 146.863 114.241 148.45 112.794C150.037 111.347 151.927 109.691 154.12 107.824C154.213 107.731 154.447 107.544 154.82 107.264C155.193 106.937 155.613 106.587 156.08 106.214C156.547 105.841 156.99 105.467 157.41 105.094C157.877 104.721 158.25 104.417 158.53 104.184C158.717 103.997 158.81 103.904 158.81 103.904C158.81 103.904 158.857 103.974 158.95 104.114ZM169.163 125.604C169.443 125.604 169.63 125.651 169.723 125.744C169.863 125.837 169.863 126.047 169.723 126.374C169.583 126.654 169.303 127.121 168.883 127.774C168.51 128.381 167.95 129.221 167.203 130.294C166.55 131.227 165.756 132.231 164.823 133.304C163.936 134.331 162.98 135.054 161.953 135.474C161.066 135.894 160.156 135.894 159.223 135.474C158.29 135.007 157.59 134.191 157.123 133.024C156.656 131.811 156.563 130.247 156.843 128.334C157.076 126.421 157.94 124.204 159.433 121.684C159.526 121.451 159.643 121.264 159.783 121.124C159.923 120.984 160.133 120.774 160.413 120.494C160.926 119.981 161.44 119.747 161.953 119.794C162.466 119.794 162.933 119.934 163.353 120.214C163.773 120.494 164.123 120.844 164.403 121.264C164.73 121.637 164.916 121.917 164.963 122.104C165.15 122.711 165.126 123.387 164.893 124.134C164.706 124.881 164.38 125.534 163.913 126.094C163.493 126.654 162.98 127.051 162.373 127.284C161.813 127.471 161.253 127.307 160.693 126.794C160.506 126.654 160.413 126.584 160.413 126.584C160.413 126.584 160.39 126.654 160.343 126.794C160.25 127.027 160.156 127.261 160.063 127.494C160.016 127.727 159.97 127.914 159.923 128.054L159.643 129.594C159.55 130.014 159.456 130.504 159.363 131.064C159.223 131.437 159.176 132.021 159.223 132.814C159.316 133.607 159.456 134.214 159.643 134.634C159.83 135.054 160.25 135.147 160.903 134.914C161.556 134.634 162.326 134.097 163.213 133.304C164.146 132.464 165.126 131.391 166.153 130.084C167.226 128.777 168.23 127.284 169.163 125.604ZM160.763 125.534C160.67 125.627 160.693 125.744 160.833 125.884C161.02 126.071 161.09 126.257 161.043 126.444C160.996 126.584 161.206 126.607 161.673 126.514C162.093 126.374 162.513 125.977 162.933 125.324C163.4 124.624 163.703 123.924 163.843 123.224C163.89 122.897 163.89 122.547 163.843 122.174C163.843 121.754 163.796 121.521 163.703 121.474C163.656 121.427 163.54 121.451 163.353 121.544C163.213 121.637 163.05 121.777 162.863 121.964C162.723 122.104 162.56 122.267 162.373 122.454C162.233 122.594 162.14 122.734 162.093 122.874C162.093 122.874 162.023 123.014 161.883 123.294C161.743 123.574 161.58 123.877 161.393 124.204C161.253 124.531 161.113 124.834 160.973 125.114C160.833 125.394 160.763 125.534 160.763 125.534ZM188.626 125.604C188.906 125.744 189.022 125.931 188.976 126.164C188.976 126.397 188.766 126.491 188.346 126.444C187.972 126.444 187.272 126.421 186.246 126.374C185.266 126.327 184.216 126.281 183.096 126.234C182.022 126.187 180.972 126.141 179.946 126.094C178.966 126.001 178.289 125.931 177.916 125.884C178.009 126.864 177.986 127.797 177.846 128.684C177.706 129.571 177.379 130.644 176.866 131.904C176.306 133.164 175.862 133.981 175.536 134.354C175.256 134.727 174.952 135.077 174.626 135.404C174.299 135.404 173.949 135.404 173.576 135.404C173.202 135.357 172.829 135.264 172.456 135.124C172.129 134.937 171.849 134.634 171.616 134.214C171.336 133.794 171.126 133.187 170.986 132.394C170.892 131.834 170.892 131.227 170.986 130.574C171.032 129.921 171.126 129.291 171.266 128.684C171.359 128.077 171.476 127.564 171.616 127.144C171.756 126.677 171.872 126.374 171.966 126.234C172.106 126.001 172.222 125.791 172.316 125.604C172.362 125.371 172.456 125.137 172.596 124.904C173.389 123.597 173.996 122.687 174.416 122.174C174.836 121.661 175.162 121.334 175.396 121.194C175.629 121.054 175.769 121.007 175.816 121.054C175.909 121.101 175.956 121.054 175.956 120.914C175.956 120.727 176.166 120.797 176.586 121.124C176.726 121.217 176.889 121.521 177.076 122.034C177.262 122.547 177.426 123.131 177.566 123.784C177.659 124.297 177.729 124.624 177.776 124.764C177.822 124.857 177.939 124.904 178.126 124.904C178.219 124.904 178.662 124.951 179.456 125.044C180.296 125.091 181.276 125.161 182.396 125.254C183.516 125.301 184.636 125.371 185.756 125.464C186.922 125.557 187.879 125.604 188.626 125.604ZM175.606 124.204C175.606 124.344 175.722 124.437 175.956 124.484C176.376 124.671 176.586 124.671 176.586 124.484C176.632 124.344 176.609 124.017 176.516 123.504C176.422 122.991 176.352 122.734 176.306 122.734C176.259 122.734 176.142 122.944 175.956 123.364C175.769 123.784 175.652 124.064 175.606 124.204ZM176.586 127.074C176.632 126.654 176.656 126.351 176.656 126.164C176.702 125.977 176.679 125.861 176.586 125.814C176.539 125.721 176.422 125.651 176.236 125.604C176.096 125.511 175.886 125.394 175.606 125.254C175.372 125.114 175.256 125.044 175.256 125.044C175.256 124.997 175.209 125.067 175.116 125.254C174.462 126.561 173.996 127.797 173.716 128.964C173.436 130.084 173.272 131.064 173.226 131.904C173.179 132.744 173.202 133.397 173.296 133.864C173.389 134.331 173.506 134.564 173.646 134.564C173.739 134.564 173.926 134.354 174.206 133.934C174.486 133.467 174.789 132.884 175.116 132.184C175.442 131.484 175.746 130.691 176.026 129.804C176.306 128.917 176.492 128.007 176.586 127.074ZM213.014 125.604C213.387 125.791 213.527 126.001 213.434 126.234C213.34 126.467 213.247 126.584 213.154 126.584C212.64 126.631 211.777 126.771 210.564 127.004C209.35 127.237 208.137 127.564 206.924 127.984C206.597 128.077 206.387 128.194 206.294 128.334C206.247 128.427 206.107 128.777 205.874 129.384C205.547 130.457 205.22 131.274 204.894 131.834C204.707 132.161 204.544 132.441 204.404 132.674C204.404 132.767 204.31 132.977 204.124 133.304C203.984 133.584 203.867 133.747 203.774 133.794C203.68 133.887 203.634 133.981 203.634 134.074C203.68 134.167 203.657 134.214 203.564 134.214C203.47 134.214 203.424 134.284 203.424 134.424C203.47 134.517 203.377 134.681 203.144 134.914C203.05 135.007 202.98 135.077 202.934 135.124C202.934 135.171 202.91 135.241 202.864 135.334C202.817 135.381 202.77 135.451 202.724 135.544C202.677 135.637 202.56 135.801 202.374 136.034C200.134 138.881 198.127 140.841 196.354 141.914C194.627 142.987 193.25 143.431 192.224 143.244C191.244 143.057 190.66 142.381 190.474 141.214C190.24 140.001 190.544 138.577 191.384 136.944C192.317 135.031 193.577 133.397 195.164 132.044C196.797 130.644 198.57 129.547 200.484 128.754C200.577 128.707 200.74 128.661 200.974 128.614C201.254 128.521 201.557 128.427 201.884 128.334C202.21 128.194 202.514 128.077 202.794 127.984C203.074 127.891 203.284 127.821 203.424 127.774C203.47 127.774 203.54 127.657 203.634 127.424C203.774 127.144 203.89 126.864 203.984 126.584C204.077 126.304 204.17 126.047 204.264 125.814C204.357 125.581 204.404 125.464 204.404 125.464C204.497 125.371 204.614 125.067 204.754 124.554C204.894 124.041 205.01 123.481 205.104 122.874C205.197 122.221 205.267 121.614 205.314 121.054C205.407 120.494 205.407 120.097 205.314 119.864C205.267 119.677 205.127 119.561 204.894 119.514C204.007 119.467 203.027 119.864 201.954 120.704C200.927 121.497 199.947 122.477 199.014 123.644C198.08 124.811 197.217 126.024 196.424 127.284C195.63 128.497 195.024 129.524 194.604 130.364C194.137 131.251 193.81 131.927 193.624 132.394C193.437 132.861 193.297 133.211 193.204 133.444C193.11 133.631 193.04 133.747 192.994 133.794C192.947 133.794 192.83 133.794 192.644 133.794C192.41 133.794 192.2 133.747 192.014 133.654C191.827 133.561 191.734 133.467 191.734 133.374C191.734 133.141 191.71 132.861 191.664 132.534C191.57 132.161 191.524 131.671 191.524 131.064C191.477 130.457 191.477 129.687 191.524 128.754C191.57 127.821 191.664 126.701 191.804 125.394C191.85 125.161 191.897 124.951 191.944 124.764C192.037 124.531 192.06 124.391 192.014 124.344C191.967 124.251 192.037 123.691 192.224 122.664C192.41 121.637 192.644 120.471 192.924 119.164C193.204 117.857 193.484 116.597 193.764 115.384C194.09 114.171 194.324 113.331 194.464 112.864C194.837 111.697 195.14 110.764 195.374 110.064C195.607 109.364 195.724 108.991 195.724 108.944C195.724 108.897 195.84 108.524 196.074 107.824C196.354 107.124 196.657 106.354 196.984 105.514C197.31 104.674 197.637 103.904 197.964 103.204C198.29 102.457 198.524 102.014 198.664 101.874C198.757 101.781 198.804 101.734 198.804 101.734C198.85 101.734 198.967 101.781 199.154 101.874C199.527 102.107 199.737 102.317 199.784 102.504C199.83 102.691 199.83 102.924 199.784 103.204C199.784 103.484 199.737 103.834 199.644 104.254C199.597 104.674 199.527 105.094 199.434 105.514C199.387 105.887 199.317 106.237 199.224 106.564C199.13 106.844 199.06 107.007 199.014 107.054C198.967 107.101 198.944 107.194 198.944 107.334C198.944 107.474 198.874 107.777 198.734 108.244C198.594 108.711 198.5 108.991 198.454 109.084C198.36 109.177 198.36 109.224 198.454 109.224C198.5 109.224 198.454 109.457 198.314 109.924C198.174 110.391 198.01 110.904 197.824 111.464C197.637 112.117 197.404 112.841 197.124 113.634C197.124 113.681 197.1 113.821 197.054 114.054C197.007 114.287 196.937 114.521 196.844 114.754C196.797 114.987 196.727 115.221 196.634 115.454C196.587 115.641 196.564 115.757 196.564 115.804C196.517 115.851 196.4 116.271 196.214 117.064C196.027 117.857 195.817 118.837 195.584 120.004C195.35 121.171 195.117 122.407 194.884 123.714C194.697 125.021 194.534 126.211 194.394 127.284C194.394 127.611 194.347 127.914 194.254 128.194C194.207 128.427 194.184 128.591 194.184 128.684C194.184 128.731 194.254 128.661 194.394 128.474C194.534 128.241 194.79 127.797 195.164 127.144C195.724 126.117 196.354 125.137 197.054 124.204C197.754 123.271 198.43 122.431 199.084 121.684C199.737 120.937 200.32 120.331 200.834 119.864C201.394 119.351 201.814 119.001 202.094 118.814C203.074 118.254 203.82 118.044 204.334 118.184C204.894 118.277 205.477 118.767 206.084 119.654C206.364 120.027 206.55 120.354 206.644 120.634C206.784 120.867 206.9 121.147 206.994 121.474C207.04 121.707 207.064 122.057 207.064 122.524C207.11 122.944 207.11 123.411 207.064 123.924C207.017 124.437 206.97 124.951 206.924 125.464C206.877 125.931 206.807 126.327 206.714 126.654C206.62 126.887 207.134 126.817 208.254 126.444C209.374 126.071 210.96 125.791 213.014 125.604ZM201.254 132.394C201.347 132.301 201.464 132.114 201.604 131.834C201.744 131.507 201.907 131.181 202.094 130.854C202.28 130.481 202.42 130.154 202.514 129.874C202.654 129.594 202.724 129.431 202.724 129.384C202.724 129.337 202.537 129.384 202.164 129.524C201.837 129.664 201.44 129.851 200.974 130.084C200.507 130.317 200.04 130.574 199.574 130.854C199.107 131.134 198.734 131.367 198.454 131.554C198.267 131.647 198.15 131.717 198.104 131.764C198.057 131.764 198.01 131.787 197.964 131.834C197.917 131.834 197.754 131.951 197.474 132.184C197.24 132.371 197.077 132.464 196.984 132.464C196.937 132.464 196.914 132.487 196.914 132.534C196.914 132.581 196.68 132.791 196.214 133.164C195.047 134.097 193.95 135.287 192.924 136.734C191.897 138.134 191.36 139.581 191.314 141.074C191.314 141.494 191.36 141.844 191.454 142.124C191.5 142.357 191.827 142.357 192.434 142.124L193.064 141.914C193.437 141.821 193.88 141.564 194.394 141.144C194.907 140.677 195.42 140.187 195.934 139.674C196.54 139.067 197.17 138.391 197.824 137.644C198.104 137.364 198.407 136.991 198.734 136.524C199.06 136.011 199.364 135.521 199.644 135.054C199.97 134.587 200.25 134.167 200.484 133.794C200.717 133.421 200.857 133.211 200.904 133.164C201.09 132.931 201.16 132.791 201.114 132.744C201.114 132.697 201.16 132.581 201.254 132.394Z" fill="#1A2B2F"/>
</g>
<path d="M45.3084 119.604C44.2531 120.661 43.4215 121.825 42.852 123.087C38.8522 131.964 49.3173 142.356 66.2227 146.297C83.1281 150.238 100.076 146.236 104.076 137.36C104.646 136.097 104.921 134.803 104.926 133.503L45.3084 119.604Z" fill="#2E7987" stroke="black" stroke-opacity="0.73" stroke-width="2.14217" stroke-miterlimit="10"/>
<path d="M106.515 132.807C107.759 130.365 94.999 125.388 78.0131 121.691C61.0272 117.995 46.2482 116.978 45.0032 119.421C43.7583 121.864 56.5188 126.84 73.5047 130.537C90.4905 134.234 105.27 135.25 106.515 132.807Z" fill="#10454F" fill-opacity="0.58" stroke="black" stroke-width="1.07108" stroke-miterlimit="10"/>
<path d="M94.0202 120.548C89.47 117.591 85.2881 119.67 66.8784 120.772C53.5983 121.566 47.7343 120.967 47.2716 122.317C46.6675 124.082 55.988 127.09 61.8094 128.802C61.8094 128.802 106.57 139.525 108.214 136.388C108.661 135.537 106.909 134.888 102.317 130.248C95.927 123.795 96.9197 122.432 94.0224 120.548H94.0202Z" fill="white" stroke="#1C1C1C" stroke-width="1.07108" stroke-miterlimit="10"/>
<path d="M117.306 111.357L88.9331 129.685" stroke="black" stroke-width="1.07108" stroke-miterlimit="10"/>
<path d="M115.851 114.92L88.5693 130.957" stroke="black" stroke-miterlimit="10"/>
<path d="M90.1255 83.6104L92.9979 110.253" stroke="black" stroke-width="1.07108" stroke-miterlimit="10"/>
<path d="M93.7161 84.3237V111.918" stroke="black" stroke-width="1.07108" stroke-miterlimit="10"/>
<path d="M103.3 120.169C102.878 119.632 101.983 119.278 101.078 119.293C100.392 119.767 100.379 120.547 100.781 121.151C101.183 121.755 101.922 122.222 102.642 122.674C103.15 122.992 103.763 123.336 104.451 123.266C105.139 123.197 107.97 121.424 107.307 121.284C108.252 122.284 107.392 123.585 106.531 124.619C106.328 124.861 106.091 125.125 105.698 125.21C105.39 125.278 105.054 125.219 104.744 125.152C102.592 124.687 100.612 123.785 99.3632 122.518C98.1147 121.251 97.6532 119.608 98.3499 118.161C98.7148 117.405 99.6093 116.631 100.79 116.677C101.203 116.693 101.59 116.808 101.959 116.934C103.26 117.372 104.462 117.942 105.517 118.615" fill="#73793A"/>
<path d="M103.3 120.169C102.878 119.632 101.983 119.278 101.078 119.293C100.392 119.767 100.379 120.547 100.781 121.151C101.183 121.755 101.922 122.222 102.642 122.674C103.15 122.992 103.763 123.336 104.451 123.266C105.139 123.197 107.97 121.424 107.307 121.284C108.252 122.284 107.392 123.585 106.531 124.619C106.328 124.861 106.091 125.125 105.698 125.21C105.39 125.278 105.054 125.219 104.744 125.152C102.592 124.687 100.612 123.785 99.3632 122.518C98.1147 121.251 97.6532 119.608 98.3499 118.161C98.7148 117.405 99.6093 116.631 100.79 116.677C101.203 116.693 101.59 116.808 101.959 116.934C103.26 117.372 104.462 117.942 105.517 118.615" stroke="black" stroke-width="0.535542" stroke-miterlimit="10"/>
<path d="M90.877 94.6947C90.0727 94.5105 89.1472 94.6474 88.5788 95.0351C88.6075 95.6393 89.3716 96.1675 90.2289 96.4043C91.0861 96.6411 92.024 96.6457 92.9349 96.6471C93.5772 96.6486 94.3117 96.6225 94.6858 96.2888C95.0599 95.9552 95.1248 93.5849 94.5591 93.7684C96.1584 94.0442 96.8937 95.2744 97.3634 96.3268C97.4732 96.5735 97.5818 96.8494 97.4129 97.0707C97.2821 97.2446 97.0071 97.3454 96.742 97.4304C94.8962 98.0168 92.7293 98.2399 90.6706 97.912C88.6119 97.5842 86.6882 96.6766 85.7026 95.4157C85.189 94.7572 84.9976 93.8649 85.8028 93.403C86.0843 93.2411 86.4475 93.1568 86.8093 93.0867C88.0808 92.837 89.4185 92.7166 90.7643 92.7273" fill="#A0AA6E"/>
<path d="M90.877 94.6947C90.0727 94.5105 89.1472 94.6474 88.5788 95.0351C88.6075 95.6393 89.3716 96.1675 90.2289 96.4043C91.0861 96.6411 92.024 96.6457 92.9349 96.6471C93.5772 96.6486 94.3117 96.6225 94.6858 96.2888C95.0599 95.9552 95.1248 93.5849 94.5591 93.7684C96.1584 94.0442 96.8937 95.2744 97.3634 96.3268C97.4732 96.5735 97.5818 96.8494 97.4129 97.0707C97.2821 97.2446 97.0071 97.3454 96.742 97.4304C94.8962 98.0168 92.7293 98.2399 90.6706 97.912C88.6119 97.5842 86.6882 96.6766 85.7026 95.4157C85.189 94.7572 84.9976 93.8649 85.8028 93.403C86.0843 93.2411 86.4475 93.1568 86.8093 93.0867C88.0808 92.837 89.4185 92.7166 90.7643 92.7273" stroke="black" stroke-width="0.535542" stroke-miterlimit="10"/>
<path d="M81.1137 117.95C82.0017 118.409 83.3007 118.642 84.1446 118.117C84.7661 117.731 84.9163 117.042 84.6954 116.472C84.4745 115.902 83.9517 115.429 83.4038 114.999C82.3449 114.169 81.099 113.42 79.6085 113.109C78.314 112.838 74.4864 113.068 75.4628 114.532C75.7868 115.017 77.3597 115.361 77.9399 115.694C79.1049 116.364 79.8987 117.321 81.1137 117.951V117.95Z" fill="#757B3C" stroke="black" stroke-width="0.535542" stroke-miterlimit="10"/>
<path d="M79.0258 113.396C80.6409 113.889 82.0056 114.628 82.9304 115.512C83.2729 115.839 83.3993 116.389 82.7328 116.485C80.5513 116.039 78.873 114.927 78.4673 113.655" fill="white"/>
<path d="M79.0258 113.396C80.6409 113.889 82.0056 114.628 82.9304 115.512C83.2729 115.839 83.3993 116.389 82.7328 116.485C80.5513 116.039 78.873 114.927 78.4673 113.655" stroke="black" stroke-width="0.535542" stroke-miterlimit="10"/>
<path d="M67.1756 124.231C66.5131 123.604 65.2808 123.111 64.0756 123.442C63.187 123.687 62.6149 124.32 62.5041 124.916C62.3933 125.512 62.6624 126.077 62.9812 126.605C63.6008 127.625 64.4668 128.606 65.8551 129.214C67.0603 129.743 71.2434 130.312 71.0919 128.697C71.0422 128.161 69.586 127.506 69.1745 127.064C68.3469 126.177 68.0846 125.088 67.1779 124.229L67.1756 124.231Z" fill="#A3912F" stroke="black" stroke-width="0.535542" stroke-miterlimit="10"/>
<path d="M64.8892 125.239C66.5167 125.803 67.8525 126.693 68.7128 127.789C69.0298 128.193 69.0975 128.894 68.3915 129.045C66.168 128.566 64.5489 127.209 64.2742 125.594" fill="#E6E6E6"/>
<path d="M64.8892 125.239C66.5167 125.803 67.8525 126.693 68.7128 127.789C69.0298 128.193 69.0975 128.894 68.3915 129.045C66.168 128.566 64.5489 127.209 64.2742 125.594" stroke="black" stroke-width="0.535542" stroke-miterlimit="10"/>
<path d="M93.6427 123.058C93.6427 123.058 93.6427 123.06 93.6427 123.061C93.2457 124.509 91.5639 125.364 89.4075 126.386C86.1718 127.92 84.5426 128.683 84.1181 128.504C83.6846 128.323 84.2048 127.566 84.4216 127.255C85.9459 125.044 90.1811 123.767 93.645 123.06L93.6427 123.058Z" fill="#FBB03B" stroke="black" stroke-width="1.07108" stroke-miterlimit="10"/>
<defs>
<filter id="filter0_d_89_295" x="144" y="83.6338" width="92" height="90" filterUnits="userSpaceOnUse" color-interpolation-filters="sRGB">
<feFlood flood-opacity="0" result="BackgroundImageFix"/>
<feColorMatrix in="SourceAlpha" type="matrix" values="0 0 0 0 0 0 0 0 0 0 0 0 0 0 0 0 0 0 127 0" result="hardAlpha"/>
<feOffset dy="4"/>
<feGaussianBlur stdDeviation="2"/>
<feComposite in2="hardAlpha" operator="out"/>
<feColorMatrix type="matrix" values="0 0 0 0 0 0 0 0 0 0 0 0 0 0 0 0 0 0 0.31 0"/>
<feBlend mode="normal" in2="BackgroundImageFix" result="effect1_dropShadow_89_295"/>
<feBlend mode="normal" in="SourceGraphic" in2="effect1_dropShadow_89_295" result="shape"/>
</filter>
<filter id="filter1_d_89_295" x="0.151642" y="0.0246377" width="264.324" height="255.823" filterUnits="userSpaceOnUse" color-interpolation-filters="sRGB">
<feFlood flood-opacity="0" result="BackgroundImageFix"/>
<feColorMatrix in="SourceAlpha" type="matrix" values="0 0 0 0 0 0 0 0 0 0 0 0 0 0 0 0 0 0 127 0" result="hardAlpha"/>
<feOffset dy="5.35542"/>
<feGaussianBlur stdDeviation="40.1656"/>
<feComposite in2="hardAlpha" operator="out"/>
<feColorMatrix type="matrix" values="0 0 0 0 0 0 0 0 0 0 0 0 0 0 0 0 0 0 0.2 0"/>
<feBlend mode="normal" in2="BackgroundImageFix" result="effect1_dropShadow_89_295"/>
<feBlend mode="normal" in="SourceGraphic" in2="effect1_dropShadow_89_295" result="shape"/>
</filter>
<filter id="filter2_d_89_295" x="120.898" y="101.734" width="94.818" height="51.9543" filterUnits="userSpaceOnUse" color-interpolation-filters="sRGB">
<feFlood flood-opacity="0" result="BackgroundImageFix"/>
<feColorMatrix in="SourceAlpha" type="matrix" values="0 0 0 0 0 0 0 0 0 0 0 0 0 0 0 0 0 0 127 0" result="hardAlpha"/>
<feOffset dy="2.14217"/>
<feGaussianBlur stdDeviation="1.07108"/>
<feComposite in2="hardAlpha" operator="out"/>
<feColorMatrix type="matrix" values="0 0 0 0 0 0 0 0 0 0 0 0 0 0 0 0 0 0 1 0"/>
<feBlend mode="normal" in2="BackgroundImageFix" result="effect1_dropShadow_89_295"/>
<feBlend mode="normal" in="SourceGraphic" in2="effect1_dropShadow_89_295" result="shape"/>
</filter>
</defs>
</svg>
